<svg width="180" height="180" viewBox="0 0 180 180" fill="none" xmlns="http://www.w3.org/2000/svg">
  <rect x="15" y="15" width="150" height="150" rx="42" fill="url(#g)"/>
  <path d="M54 76h72v28c0 22-16 39-36 39s-36-17-36-39V76Z" fill="#82C8AE"/>
  <path d="M126 85h8c12 0 20 8 20 19s-8 20-20 20h-10" stroke="#78B9C7" stroke-width="8" stroke-linecap="round"/>
  <path d="M70 57c-6-8 7-13 1-23M91 57c-6-8 7-13 1-23M112 57c-6-8 7-13 1-23" stroke="#A9B2E8" stroke-width="6" stroke-linecap="round"/>
  <circle cx="75" cy="101" r="5" fill="#2E3145"/>
  <circle cx="105" cy="101" r="5" fill="#2E3145"/>
  <path d="M82 116c6 4 12 4 18 0" stroke="#2E3145" stroke-width="5" stroke-linecap="round"/>
  <rect x="15" y="15" width="150" height="150" rx="42" stroke="#FFFFFF" stroke-width="6"/>
  <rect x="18" y="18" width="144" height="144" rx="39" stroke="#D8E0ED" stroke-width="2"/>
  <defs><linearGradient id="g" x1="28" y1="28" x2="152" y2="152"><stop stop-color="#F9FFFB"/><stop offset="1" stop-color="#EAF6F7"/></linearGradient></defs>
</svg>
