<svg xmlns="http://www.w3.org/2000/svg" viewBox="0 0 24 24" fill="none">
  <path d="M12 8.5A3.5 3.5 0 1 0 12 15.5A3.5 3.5 0 1 0 12 8.5Z" stroke="#5C6DFF" stroke-width="1.8"/>
  <path d="M19.4 12c0-.5-.1-.9-.1-1.3l2-1.5-2-3.4-2.4.7a7.9 7.9 0 0 0-2.3-1.3L14.2 2h-4.1l-.4 3.2c-.8.3-1.6.7-2.3 1.3L5 5.8l-2 3.4 2 1.5c-.1.4-.1.8-.1 1.3s0 .9.1 1.3L3 14.8l2 3.4 2.4-.7c.7.6 1.5 1 2.3 1.3l.4 3.2h4.1l.4-3.2c.8-.3 1.6-.7 2.3-1.3l2.4.7 2-3.4-2-1.5c0-.4.1-.8.1-1.3Z" stroke="#8F5DFF" stroke-width="1.2" stroke-linejoin="round"/>
</svg>
